HIERARCHY
ROOT Hips
{
	OFFSET 0.00000 0.00000 0.00000
	CHANNELS 6 Xposition Yposition Zposition Zrotation Yrotation Xrotation 
	JOINT LHipJoint
	{
		OFFSET 0 0 0
		CHANNELS 3 Zrotation Yrotation Xrotation
		JOINT LeftUpLeg
		{
			OFFSET 1.28858 -1.83292 1.03970
			CHANNELS 3 Zrotation Yrotation Xrotation
			JOINT LeftLeg
			{
				OFFSET 2.47846 -6.80952 0.00000
				CHANNELS 3 Zrotation Yrotation Xrotation
				JOINT LeftFoot
				{
					OFFSET 2.75274 -7.56311 0.00000
					CHANNELS 3 Zrotation Yrotation Xrotation
					JOINT LeftToeBase
					{
						OFFSET 0.12848 -0.35301 1.68223
						CHANNELS 3 Zrotation Yrotation Xrotation
						End Site
						{
							OFFSET 0.00000 -0.00000 0.87311
						}
					}
				}
			}
		}
	}
	JOINT RHipJoint
	{
		OFFSET 0 0 0
		CHANNELS 3 Zrotation Yrotation Xrotation
		JOINT RightUpLeg
		{
			OFFSET -1.31183 -1.83292 1.03970
			CHANNELS 3 Zrotation Yrotation Xrotation
			JOINT RightLeg
			{
				OFFSET -2.44740 -6.72417 0.00000
				CHANNELS 3 Zrotation Yrotation Xrotation
				JOINT RightFoot
				{
					OFFSET -2.67343 -7.34519 0.00000
					CHANNELS 3 Zrotation Yrotation Xrotation
					JOINT RightToeBase
					{
						OFFSET -0.16914 -0.46471 1.77626
						CHANNELS 3 Zrotation Yrotation Xrotation
						End Site
						{
							OFFSET -0.00000 -0.00000 0.92777
						}
					}
				}
			}
		}
	}
	JOINT LowerBack
	{
		OFFSET 0 0 0
		CHANNELS 3 Zrotation Yrotation Xrotation
		JOINT Spine
		{
			OFFSET 0.01249 2.14252 0.03842
			CHANNELS 3 Zrotation Yrotation Xrotation
			JOINT Spine1
			{
				OFFSET -0.02957 2.14199 -0.03751
				CHANNELS 3 Zrotation Yrotation Xrotation
				JOINT Neck
				{
					OFFSET 0 0 0
					CHANNELS 3 Zrotation Yrotation Xrotation
					JOINT Neck1
					{
						OFFSET -0.01678 1.65709 -0.05476
						CHANNELS 3 Zrotation Yrotation Xrotation
						JOINT Head
						{
							OFFSET 0.07912 1.58331 -0.11843
							CHANNELS 3 Zrotation Yrotation Xrotation
							End Site
							{
								OFFSET 0.03298 1.73940 -0.04271
							}
						}
					}
				}
				JOINT LeftShoulder
				{
					OFFSET 0 0 0
					CHANNELS 3 Zrotation Yrotation Xrotation
					JOINT LeftArm
					{
						OFFSET 3.39556 1.16496 0.08673
						CHANNELS 3 Zrotation Yrotation Xrotation
						JOINT LeftForeArm
						{
							OFFSET 5.23910 -0.00000 -0.00000
							CHANNELS 3 Zrotation Yrotation Xrotation
							JOINT LeftHand
							{
								OFFSET 3.31467 -0.00000 0.00000
								CHANNELS 3 Zrotation Yrotation Xrotation
								JOINT LeftFingerBase
								{
									OFFSET 0 0 0
									CHANNELS 3 Zrotation Yrotation Xrotation
									JOINT LeftHandIndex1
									{
										OFFSET 0.96590 -0.00000 0.00000
										CHANNELS 3 Zrotation Yrotation Xrotation
										End Site
										{
											OFFSET 0.77873 -0.00000 0.00000
										}
									}
								}
								JOINT LThumb
								{
									OFFSET 0 0 0
									CHANNELS 3 Zrotation Yrotation Xrotation
									End Site
									{
										OFFSET 0.79062 -0.00000 0.79062
									}
								}
							}
						}
					}
				}
				JOINT RightShoulder
				{
					OFFSET 0 0 0
					CHANNELS 3 Zrotation Yrotation Xrotation
					JOINT RightArm
					{
						OFFSET -3.27193 1.31331 0.33940
						CHANNELS 3 Zrotation Yrotation Xrotation
						JOINT RightForeArm
						{
							OFFSET -5.30252 -0.00000 0.00000
							CHANNELS 3 Zrotation Yrotation Xrotation
							JOINT RightHand
							{
								OFFSET -3.67875 -0.00000 0.00000
								CHANNELS 3 Zrotation Yrotation Xrotation
								JOINT RightFingerBase
								{
									OFFSET 0 0 0
									CHANNELS 3 Zrotation Yrotation Xrotation
									JOINT RightHandIndex1
									{
										OFFSET -0.59481 -0.00000 0.00000
										CHANNELS 3 Zrotation Yrotation Xrotation
										End Site
										{
											OFFSET -0.47955 -0.00000 0.00000
										}
									}
								}
								JOINT RThumb
								{
									OFFSET 0 0 0
									CHANNELS 3 Zrotation Yrotation Xrotation
									End Site
									{
										OFFSET -0.48687 -0.00000 0.48687
									}
								}
							}
						}
					}
				}
			}
		}
	}
}
MOTION
Frames: 7
Frame Time: .0083333
10.2488 16.6404 32.2236 0 0 0 0 0 0 -21 0 0 0 0 0 0 0 0 0 0 0 0 0 0 21 0 0 0 0 0 0 0 0 0 0 0 0 0 0 0 0 0 0 0 0 0 0 -16 0 0 21 0 0 11 0 0 0 -8 0 0 0 0 0 0 0 0 0 0 0 0 0 0 0 0 0 0 0 0 8 0 0 0 0 0 0 0 0 0 0 0 0 0 0 0 0 0
10.2488 16.6404 32.2236 179.6620 -1.1773 -179.7560 0.0000 0.0000 0.0000 1.4145 -18.4422 21.7125 0.1673 -2.6353 -7.2649 5.1653 -22.8945 -42.2934 8.6297 16.5634 54.8004 0.0000 0.0000 0.0000 -0.4104 21.0201 24.6321 -0.1267 2.2945 -6.3204 -5.9781 -14.2034 -51.9071 -0.9668 -6.2603 17.5417 -1.3565 0.0985 -7.6123 -0.8657 0.0375 -2.8508 -0.1279 -0.0678 1.3218 -0.7689 -1.9781 2.5599 2.6386 -2.7704 2.1688 0.9431 -1.4233 0.2892 0.0000 -0.0000 0.0000 -80.4714 8.6888 50.9174 12.9361 -21.1935 -2.4301 -0.0000 0.0000 -8.7632 2.5780 -12.4718 -0.5571 -7.1250 0.0000 -0.0000 -16.9945 17.7917 11.5077 0.0000 -0.0000 0.0000 81.3930 -14.4313 46.1924 -15.1576 24.3652 -3.2907 0.0000 0.0000 5.8959 -3.0794 -42.1976 2.0695 7.1250 -0.0000 -0.0000 45.5096 -66.8135 -26.0815
10.2479 16.6404 32.2264 179.6930 -1.2290 -179.7890 0.0000 0.0000 0.0000 1.6047 -18.1404 21.4786 0.1632 -2.6031 -7.1755 5.0611 -22.4557 -41.8066 8.6652 16.5874 54.9250 0.0000 0.0000 0.0000 -0.3603 20.9568 24.6713 -0.1260 2.2881 -6.3026 -6.1348 -13.5258 -52.1370 -1.2473 -7.0810 19.9556 -1.3293 0.0641 -7.5288 -0.8513 -0.0078 -2.8269 -0.1322 -0.0887 1.3006 -0.9529 -1.9243 2.3541 2.8470 -2.7158 2.4067 1.0351 -1.3962 0.4005 0.0000 -0.0000 0.0000 -80.5548 8.6107 50.6364 12.8602 -21.0820 -2.4028 -0.0000 0.0000 -8.2391 7.0031 -15.2485 -1.8504 -7.1250 0.0000 -0.0000 -13.8584 14.9196 10.1287 0.0000 -0.0000 0.0000 81.3654 -14.3800 46.3183 -15.1170 24.3088 -3.2739 0.0000 0.0000 5.7797 -3.4654 -41.8037 2.3115 7.1250 -0.0000 -0.0000 44.4730 -66.6571 -25.2371
10.2486 16.6397 32.2301 179.7160 -1.2846 -179.7760 0.0000 0.0000 0.0000 1.6766 -18.1506 21.3975 0.1622 -2.5950 -7.1532 5.1217 -22.0978 -41.9964 8.6058 16.5472 54.7166 0.0000 0.0000 0.0000 -0.3081 20.9518 24.6856 -0.1260 2.2884 -6.3033 -6.1071 -13.5956 -52.0722 -1.2014 -6.9544 19.5803 -1.3179 0.0292 -7.4650 -0.8382 -0.0554 -2.8300 -0.1289 -0.1117 1.2625 -1.0146 -1.8866 2.1559 2.8972 -2.6748 2.6182 1.0580 -1.3744 0.4989 -0.0000 0.0000 0.0000 -80.5835 8.6204 50.4758 12.8605 -21.0825 -2.4029 -0.0000 0.0000 -8.0131 8.3503 -16.1426 -2.3369 -7.1250 0.0000 -0.0000 -12.9345 13.9612 9.6867 -0.0000 0.0000 0.0000 81.3443 -14.3231 46.4723 -15.0573 24.2258 -3.2494 0.0000 0.0000 5.4490 -3.8983 -41.5173 2.5862 7.1250 -0.0000 -0.0000 43.5789 -66.5857 -24.5798
10.2508 16.6405 32.2354 179.8370 -1.1761 -179.7700 0.0000 0.0000 0.0000 1.7967 -18.2230 21.4649 0.1631 -2.6023 -7.1734 5.1544 -22.0942 -42.1276 8.5928 16.5384 54.6709 0.0000 0.0000 0.0000 -0.1162 21.1616 24.6600 -0.1237 2.2675 -6.2455 -6.1234 -13.7102 -52.1826 -1.1812 -6.8976 19.4122 -1.2367 0.0723 -7.3909 -0.7709 -0.0052 -2.8502 -0.1008 -0.0859 1.2005 -1.0092 -1.9008 2.1460 2.8347 -2.6932 2.6532 1.0374 -1.3834 0.5106 0.0000 0.0000 0.0000 -80.7911 8.1526 50.7656 12.3637 -20.3478 -2.2271 -0.0000 0.0000 -8.2297 6.6602 -15.1298 -1.7457 -7.1250 0.0000 -0.0000 -14.0913 15.0547 10.2678 0.0000 0.0000 0.0000 81.2885 -14.3151 46.6049 -15.0011 24.1477 -3.2264 0.0000 0.0000 5.0429 -4.3498 -41.4214 2.8809 7.1250 -0.0000 -0.0000 42.9826 -66.6529 -24.2541
10.2528 16.6409 32.2407 179.9530 -1.1326 -179.7390 0.0000 0.0000 0.0000 1.9915 -18.2049 21.3911 0.1627 -2.5985 -7.1629 5.1611 -22.0020 -42.1411 8.5787 16.5288 54.6213 0.0000 0.0000 0.0000 0.0756 21.3287 24.6449 -0.1219 2.2506 -6.1988 -6.1840 -13.6520 -52.3668 -1.2214 -7.0099 19.7448 -1.1554 0.0856 -7.3430 -0.7160 0.0052 -2.8705 -0.0890 -0.0804 1.1532 -1.0583 -1.8873 2.0848 2.8642 -2.6802 2.7443 1.0539 -1.3769 0.5496 0.0000 0.0000 0.0000 -80.9415 7.8120 50.9391 12.0016 -19.8070 -2.1028 -0.0000 0.0000 -8.2960 6.4004 -14.9546 -1.6581 -7.1250 0.0000 -0.0000 -14.2722 15.2394 10.3498 0.0000 0.0000 0.0000 81.2457 -14.2985 46.7135 -14.9621 24.0932 -3.2104 0.0000 0.0000 4.8109 -4.6357 -41.2931 3.0629 7.1250 -0.0000 -0.0000 42.4931 -66.6467 -23.9299
10.2550 16.6416 32.2461 180.0820 -1.0821 -179.6960 0.0000 0.0000 0.0000 2.2002 -18.2057 21.3197 0.1625 -2.5972 -7.1593 5.1711 -21.9776 -42.1779 8.5685 16.5219 54.5855 0.0000 0.0000 0.0000 0.2905 21.5241 24.6244 -0.1199 2.2319 -6.1469 -6.2464 -13.6261 -52.5717 -1.2451 -7.0751 19.9381 -1.0627 0.1048 -7.3090 -0.6580 0.0222 -2.8969 -0.0799 -0.0720 1.1072 -1.1023 -1.8805 2.0526 2.8978 -2.6760 2.8189 1.0712 -1.3752 0.5790 0.0000 -0.0000 0.0000 -81.0887 7.4687 51.1768 11.6369 -19.2579 -1.9809 -0.0000 0.0000 -8.4389 5.6831 -14.4794 -1.4253 -7.1250 0.0000 -0.0000 -14.7740 15.7376 10.5751 0.0000 -0.0000 0.0000 81.2055 -14.2936 46.7936 -14.9321 24.0514 -3.1982 0.0000 0.0000 4.6464 -4.8068 -41.2235 3.1719 7.1250 -0.0000 -0.0000 42.2117 -66.6479 -23.7488
